# xmcd
#
# Track frame offsets: 
#        150
#        27215
#        43193
#        59849
#        84511
#        98579
#        119124
#        139428
#        161651
#        178724
#        200672
#        226618
#        255683
#        276117
#        299179
#        323572
#
# Disc length: 4600 seconds
#
# Revision: 4
# Processed by: cddbd v1.5.2PL0 Copyright (c) Steve Scherf et al.
# Submitted via: ExactAudioCopy v1.0b3
#
DISCID=f611f610
DTITLE=The Jacksons - The Very Best of the Jacksons [CD2]
DYEAR=2004
DGENRE=Rock
TTITLE0=Can You Feel It
TTITLE1=Blame It On The Boogie
TTITLE2=Enjoy Yourself
TTITLE3=Show You The Way To Go
TTITLE4=Dreamer
TTITLE5=Even Though You're Gone
TTITLE6=Goin' Places
TTITLE7=Torture                               
TTITLE8=Shake Your Body (Down To The Ground)
TTITLE9=Lovely One
TTITLE10=This Place Hotel
TTITLE11=Walk Right Now
TTITLE12=State Of Shock (With Mick Jagger)
TTITLE13=2300 Jackson Street
TTITLE14=Nothin' (That Compares 2 U)
TTITLE15=Don't Stop 'Til You Get Enough (Live 1981)
EXTD=Jacksons
EXTT0=
EXTT1=
EXTT2=
EXTT3=
EXTT4=
EXTT5=
EXTT6=
EXTT7=
EXTT8=
EXTT9=
EXTT10=
EXTT11=
EXTT12=
EXTT13=
EXTT14=
EXTT15=
PLAYORDER=
